<?xml version="1.0" standalone="no"?>
<!DOCTYPE svg PUBLIC "-//W3C//DTD SVG 20010904//EN"
 "http://www.w3.org/TR/2001/REC-SVG-20010904/DTD/svg10.dtd">
<svg version="1.0" xmlns="http://www.w3.org/2000/svg"
 width="342.000000pt" height="422.000000pt" viewBox="0 0 342.000000 422.000000"
 preserveAspectRatio="xMidYMid meet">

<g transform="translate(0.000000,422.000000) scale(0.100000,-0.100000)"
fill="#000000" stroke="none">
<path d="M1855 4170 c-209 -4 -699 -10 -1089 -14 -391 -4 -714 -10 -718 -12
-5 -3 -6 -798 -4 -1767 l5 -1762 173 -263 173 -263 140 6 c77 3 374 17 660 30
285 13 523 21 527 19 4 -3 8 -23 8 -45 0 -56 30 -69 104 -46 29 9 67 17 84 17
16 0 32 4 34 8 2 5 59 27 128 50 140 45 89 41 835 77 171 8 344 18 386 21 l75
6 2 1899 1 1899 -24 6 c-13 3 -29 3 -36 -2 -7 -4 -10 -3 -6 2 3 6 -115 39
-276 77 l-282 67 -260 -2 c-143 -1 -431 -4 -640 -8z m1141 -140 c-148 -4 -486
-10 -750 -14 -265 -4 -539 -9 -611 -11 -71 -3 -296 -7 -500 -10 -203 -3 -450
-8 -547 -11 -127 -4 -178 -3 -178 5 0 8 82 11 278 12 152 1 300 2 327 4 28 2
388 9 800 15 413 6 761 12 775 14 14 1 171 2 350 3 l325 0 -269 -7z m-2599
-87 c-3 -10 -5 -4 -5 12 0 17 2 24 5 18 2 -7 2 -21 0 -30z m2021 -207 c4 -30
-12 -48 -35 -39 -7 3 -13 16 -13 29 0 13 -4 24 -10 24 -5 0 -10 -11 -10 -25 0
-31 -17 -33 -23 -2 -3 16 -5 13 -6 -10 -1 -27 3 -33 19 -33 11 0 20 -5 20 -11
0 -6 -14 -9 -32 -7 -37 3 -44 19 -33 74 l6 35 57 -3 c55 -3 57 -4 60 -32z
m-414 -22 c11 -29 6 -62 -10 -68 -24 -9 -34 2 -34 37 0 44 -18 22 -23 -28 -4
-34 -7 -40 -28 -40 -21 0 -25 6 -30 43 -6 44 1 56 36 65 44 11 83 7 89 -9z
m409 -41 c-7 -2 -21 -2 -30 0 -10 3 -4 5 12 5 17 0 24 -2 18 -5z m-416 -49
c-3 -3 -12 -4 -19 -1 -8 3 -5 6 6 6 11 1 17 -2 13 -5z m-217 -34 c0 -5 -6 -10
-14 -10 -8 0 -18 5 -21 10 -3 6 3 10 14 10 12 0 21 -4 21 -10z m480 -26 c0
-10 8 -15 23 -14 44 4 57 0 51 -15 -4 -8 -1 -21 4 -28 6 -7 7 -18 3 -25 -11
-18 -71 -27 -71 -11 0 8 -4 8 -15 -1 -8 -7 -15 -9 -15 -5 0 4 -7 2 -15 -5 -8
-6 -18 -9 -23 -6 -5 3 -24 1 -43 -4 -19 -5 -60 -11 -92 -15 -32 -3 -65 -9 -73
-12 -8 -3 -14 0 -14 7 0 9 -4 9 -12 3 -21 -16 -58 -22 -58 -10 0 8 -4 7 -12
-1 -15 -15 -51 -15 -66 0 -16 16 -15 70 2 93 8 12 20 16 34 12 12 -3 25 -1 28
4 8 13 21 11 39 -7 19 -20 85 -11 85 11 0 21 30 19 46 -2 12 -17 13 -16 14 5
0 25 26 30 44 8 17 -20 93 -9 99 15 6 23 37 26 37 3z m-540 -34 c0 -8 -161 -1
-170 7 -2 2 35 3 83 2 48 -1 87 -5 87 -9z m-200 -272 c0 -144 -3 -259 -6 -255
-4 3 -6 34 -6 69 0 35 1 150 1 256 1 105 3 192 6 192 3 0 5 -118 5 -262z m-84
-273 c14 -35 -6 -64 -61 -90 -30 -15 -55 -31 -55 -36 0 -5 38 -9 85 -9 82 0
85 1 75 19 -23 43 -5 111 30 111 10 0 20 6 23 13 9 23 60 -15 70 -52 9 -37 2
-85 -12 -77 -5 3 -11 -4 -14 -16 -5 -18 -11 -20 -44 -15 -21 3 -32 3 -25 0 9
-4 11 -105 10 -471 l-3 -467 -2 444 -3 444 -238 -7 c-130 -3 -294 -9 -363 -12
-117 -6 -126 -5 -131 12 -3 11 -9 27 -13 37 -6 15 0 17 56 17 35 0 71 5 79 10
9 6 -5 7 -43 3 -73 -7 -76 9 -7 40 34 15 53 30 56 45 4 12 10 22 16 22 5 0 7
4 4 8 -3 5 56 13 132 17 75 4 178 11 227 15 145 11 145 11 151 -5z m283 -22
c0 -25 -1 -26 -9 -8 -12 27 -12 35 0 35 6 0 10 -12 9 -27z m-389 -751 c0 -170
-3 -458 -7 -640 l-6 -332 -115 0 -115 0 6 308 c4 169 7 447 8 618 0 171 3 321
6 332 5 21 11 22 114 22 l109 0 0 -308z m-387 191 c4 -58 7 -346 7 -640 l0
-533 -115 0 c-113 0 -114 0 -106 21 4 12 4 42 0 68 -3 25 -7 301 -8 613 l-2
567 38 4 c21 2 70 4 109 5 l71 2 6 -107z m1633 -436 c24 -26 24 -29 14 -94
-14 -83 -54 -160 -100 -191 -55 -36 -102 -16 -142 62 -23 44 -40 176 -23 176
5 0 15 10 20 23 14 30 96 58 158 53 37 -2 55 -10 73 -29z m-983 -85 c10 -10
14 -22 10 -25 -3 -4 -2 -7 4 -7 6 0 13 -9 16 -20 7 -26 -3 -61 -14 -54 -5 3
-9 2 -9 -3 -1 -4 -9 -18 -20 -31 -18 -22 -20 -22 -49 -7 -37 19 -51 43 -51 89
0 30 6 40 33 56 40 25 59 25 80 2z m127 -7 c0 -8 -2 -15 -4 -15 -2 0 -6 7 -10
15 -3 8 -1 15 4 15 6 0 10 -7 10 -15z m-25 -6 c11 -17 -2 -22 -42 -14 -36 8
-37 8 -13 15 37 11 48 11 55 -1z m-178 -842 c-1 -128 -2 -21 -2 238 0 259 1
363 2 232 2 -131 2 -343 0 -470z m-679 145 c-23 -2 -46 -13 -64 -30 -25 -25
-26 -25 -15 -4 15 29 66 52 95 43 16 -5 12 -7 -16 -9z m363 8 c-45 -11 -72
-40 -81 -87 l-8 -38 -1 35 c-2 59 39 99 99 98 20 0 18 -2 -9 -8z m-296 -30
c10 -11 16 -20 13 -20 -3 0 -13 9 -23 20 -10 11 -16 20 -13 20 3 0 13 -9 23
-20z m25 -70 c0 -55 -73 -105 -121 -84 -16 7 -11 10 22 10 49 2 89 37 89 80 0
13 2 24 5 24 3 0 5 -14 5 -30z m356 -29 c-17 -32 -63 -55 -98 -48 -18 3 -17 5
8 6 35 1 84 35 84 57 0 8 5 14 10 14 6 0 4 -12 -4 -29z m-141 -21 c10 -11 16
-20 13 -20 -3 0 -13 9 -23 20 -10 11 -16 20 -13 20 3 0 13 -9 23 -20z m443
-229 c22 -13 42 -61 41 -95 l-1 -31 -8 30 -8 30 -1 -30 c-2 -45 -32 -79 -64
-73 l-27 5 -3 -216 -2 -216 -3 232 c-1 141 -6 234 -12 238 -14 9 -12 89 2 103
7 7 20 12 30 12 10 0 18 5 18 10 0 12 20 13 38 1z m848 -599 c-4 -3 -37 -7
-74 -8 -37 -1 -51 0 -32 3 19 2 37 8 40 12 3 5 19 12 35 18 24 8 31 7 33 -4 2
-8 1 -17 -2 -21z"/>
<path d="M2180 3510 c0 -5 5 -10 10 -10 6 0 10 5 10 10 0 6 -4 10 -10 10 -5 0
-10 -4 -10 -10z"/>
<path d="M2287 3493 c-13 -13 -7 -21 13 -16 11 3 17 9 14 14 -6 11 -18 12 -27
2z"/>
<path d="M1870 3465 c0 -9 6 -12 15 -9 8 4 15 10 15 15 0 5 -7 9 -15 9 -8 0
-15 -7 -15 -15z"/>
<path d="M938 2843 c6 -2 18 -2 25 0 6 3 1 5 -13 5 -14 0 -19 -2 -12 -5z"/>
<path d="M1008 2843 c18 -2 45 -2 60 0 15 2 0 4 -33 4 -33 0 -45 -2 -27 -4z"/>
<path d="M1198 2843 c6 -2 18 -2 25 0 6 3 1 5 -13 5 -14 0 -19 -2 -12 -5z"/>
<path d="M2440 1961 c-14 -28 -12 -86 3 -100 18 -14 42 12 50 54 10 54 -30 89
-53 46z"/>
<path d="M2545 1870 c-3 -5 -31 -17 -61 -26 -44 -13 -65 -14 -97 -5 -23 5 -43
8 -45 6 -2 -2 9 -30 25 -62 51 -104 113 -98 170 17 18 36 33 68 33 73 0 10
-18 9 -25 -3z"/>
<path d="M1601 1804 c0 -11 3 -14 6 -6 3 7 2 16 -1 19 -3 4 -6 -2 -5 -13z"/>
</g>
</svg>
